<svg width="29" height="24" viewBox="0 0 29 24" fill="none" xmlns="http://www.w3.org/2000/svg">
<path d="M19.7805 12.79C19.6329 12.7415 19.4752 12.7174 19.3164 12.7192C19.1576 12.7211 19.0008 12.7488 18.8549 12.8008C18.709 12.8528 18.577 12.9281 18.4663 13.0223C18.3555 13.1166 18.2683 13.2279 18.2096 13.35C18.1509 13.4722 18.1218 13.6027 18.1241 13.7341C18.1263 13.8655 18.1598 13.9953 18.2226 14.116C18.2855 14.2367 18.3764 14.346 18.4903 14.4377C18.6042 14.5293 18.7387 14.6015 18.8863 14.65C20.6505 15.23 21.75 16.13 21.75 17C21.75 18.42 18.7775 20 14.5 20C10.2225 20 7.25004 18.42 7.25004 17C7.25004 16.13 8.34962 15.23 10.1138 14.65C10.4118 14.5519 10.6506 14.3598 10.7775 14.116C10.9044 13.8722 10.909 13.5967 10.7905 13.35C10.6719 13.1034 10.4398 12.9058 10.1452 12.8008C9.85059 12.6958 9.51766 12.6919 9.21962 12.79C6.47671 13.69 4.83337 15.26 4.83337 17C4.83337 19.8 9.07462 22 14.5 22C19.9255 22 24.1667 19.8 24.1667 17C24.1667 15.26 22.5234 13.69 19.7805 12.79ZM13.2917 9.86004V17C13.2917 17.2653 13.419 17.5196 13.6456 17.7072C13.8722 17.8947 14.1796 18 14.5 18C14.8205 18 15.1279 17.8947 15.3545 17.7072C15.5811 17.5196 15.7084 17.2653 15.7084 17V9.86004C16.8474 9.61665 17.8401 9.03782 18.5004 8.23204C19.1606 7.42626 19.4431 6.44886 19.2949 5.48304C19.1466 4.51723 18.5779 3.62931 17.6952 2.98572C16.8125 2.34213 15.6764 1.98706 14.5 1.98706C13.3236 1.98706 12.1876 2.34213 11.3049 2.98572C10.4222 3.62931 9.85346 4.51723 9.70523 5.48304C9.557 6.44886 9.83948 7.42626 10.4997 8.23204C11.16 9.03782 12.1527 9.61665 13.2917 9.86004ZM14.5 4.00004C14.978 4.00004 15.4453 4.11734 15.8427 4.3371C16.2401 4.55687 16.5498 4.86922 16.7327 5.23468C16.9157 5.60013 16.9635 6.00226 16.8703 6.39022C16.777 6.77819 16.5469 7.13455 16.2089 7.41426C15.8709 7.69396 15.4403 7.88444 14.9715 7.96161C14.5027 8.03878 14.0168 7.99918 13.5752 7.8478C13.1336 7.69643 12.7562 7.44008 12.4907 7.11118C12.2251 6.78229 12.0834 6.39561 12.0834 6.00004C12.0834 5.46961 12.338 4.9609 12.7912 4.58583C13.2444 4.21076 13.8591 4.00004 14.5 4.00004Z" fill="white"/>
</svg>
