<svg width="38" height="38" viewBox="0 0 38 38" fill="none" xmlns="http://www.w3.org/2000/svg">
<path d="M31.9516 16.1341C30.8128 15.928 29.6573 15.8273 28.5 15.8333C27.835 15.8333 27.1858 15.8333 26.5366 15.96C25.7285 14.8815 24.6969 13.9904 23.5125 13.3475C24.5298 12.2364 25.0946 10.7848 25.0958 9.27829C25.0958 7.65738 24.4519 6.10285 23.3057 4.95669C22.1596 3.81053 20.605 3.16663 18.9841 3.16663C17.3632 3.16663 15.8087 3.81053 14.6625 4.95669C13.5164 6.10285 12.8725 7.65738 12.8725 9.27829C12.8736 10.7848 13.4384 12.2364 14.4558 13.3475C13.2784 13.9937 12.2485 14.878 11.4316 15.9441C10.8141 15.8333 10.165 15.8333 9.49997 15.8333C8.34164 15.8378 7.18619 15.9491 6.0483 16.1658C5.67945 16.2332 5.34651 16.4294 5.10875 16.7193C4.87099 17.0093 4.74385 17.3742 4.74997 17.7491V30.8116C4.74959 31.0442 4.80047 31.2741 4.89898 31.4848C4.9975 31.6955 5.14124 31.8819 5.31997 32.0308C5.49757 32.1805 5.70595 32.2894 5.93033 32.3496C6.15471 32.4098 6.38959 32.4199 6.6183 32.3791C7.56578 32.1728 8.5306 32.0561 9.49997 32.0308C12.567 32.0274 15.5676 32.9248 18.1291 34.6116L18.335 34.6908C18.545 34.7819 18.771 34.8304 19 34.8333C19.1511 34.8314 19.3009 34.8047 19.4433 34.7541H19.5541L19.76 34.675C22.3459 32.9449 25.3886 32.0243 28.5 32.0308C29.4673 32.0353 30.4321 32.1307 31.3816 32.3158C31.6103 32.3565 31.8452 32.3464 32.0696 32.2862C32.294 32.2261 32.5024 32.1172 32.68 31.9675C32.8587 31.8186 33.0024 31.6322 33.101 31.4215C33.1995 31.2107 33.2503 30.9809 33.25 30.7483V17.6858C33.2486 17.3163 33.1181 16.9589 32.881 16.6755C32.6438 16.3922 32.3151 16.2006 31.9516 16.1341ZM19 6.33329C19.7417 6.38779 20.4353 6.72089 20.9415 7.26569C21.4478 7.8105 21.7292 8.52667 21.7292 9.27038C21.7292 10.0141 21.4478 10.7303 20.9415 11.2751C20.4353 11.8199 19.7417 12.153 19 12.2075C18.2583 12.153 17.5646 11.8199 17.0584 11.2751C16.5521 10.7303 16.2708 10.0141 16.2708 9.27038C16.2708 8.52667 16.5521 7.8105 17.0584 7.26569C17.5646 6.72089 18.2583 6.38779 19 6.33329ZM17.4166 30.6058C14.935 29.4587 12.2339 28.8644 9.49997 28.8641C8.97747 28.8641 8.45497 28.8641 7.91663 28.9433V19C9.24436 18.8514 10.5858 18.878 11.9066 19.0791H12.0808C13.9675 19.4259 15.7755 20.1126 17.4166 21.1058V30.6058ZM19 18.3666C18.2959 17.9605 17.566 17.6008 16.815 17.29H16.72C16.1975 17.0841 15.675 16.8783 15.1366 16.72C16.236 15.845 17.595 15.3604 19 15.3425C20.4012 15.3513 21.7599 15.8247 22.8633 16.6883C21.5192 17.1079 20.224 17.6706 19 18.3666ZM30.0833 28.9433C26.8322 28.6166 23.5528 29.1632 20.5833 30.5266V21.0266C22.2274 20.0589 24.0365 19.404 25.9191 19.095H26.2358C27.5088 18.8967 28.8021 18.8648 30.0833 19V28.9433Z" fill="white"/>
</svg>
