<svg width="25" height="27" viewBox="0 0 25 27" fill="none" xmlns="http://www.w3.org/2000/svg">
<path d="M16.1874 12.7012L10.2916 6.34498C10.1948 6.23954 10.0796 6.15584 9.95261 6.09873C9.82568 6.04161 9.68953 6.01221 9.55201 6.01221C9.4145 6.01221 9.27835 6.04161 9.15141 6.09873C9.02448 6.15584 8.90927 6.23954 8.81243 6.34498C8.61842 6.55576 8.50952 6.8409 8.50952 7.13811C8.50952 7.43531 8.61842 7.72045 8.81243 7.93123L13.9687 13.5562L8.81243 19.125C8.61842 19.3358 8.50952 19.6209 8.50952 19.9181C8.50952 20.2153 8.61842 20.5004 8.81243 20.7112C8.9089 20.8175 9.02395 20.9021 9.1509 20.96C9.27786 21.018 9.41419 21.0481 9.55201 21.0487C9.68983 21.0481 9.82617 21.018 9.95312 20.96C10.0801 20.9021 10.1951 20.8175 10.2916 20.7112L16.1874 14.355C16.2932 14.2496 16.3775 14.1218 16.4353 13.9795C16.493 13.8372 16.5228 13.6835 16.5228 13.5281C16.5228 13.3727 16.493 13.2191 16.4353 13.0767C16.3775 12.9344 16.2932 12.8066 16.1874 12.7012Z" fill="#1A1A1A"/>
</svg>
