<svg width="22" height="22" viewBox="0 0 22 22" fill="none" xmlns="http://www.w3.org/2000/svg">
<path d="M19.3875 2.6217C19.0373 2.26471 18.5932 2.01415 18.1066 1.89897C17.6199 1.7838 17.1106 1.80872 16.6375 1.97086L3.66669 6.3067C3.14356 6.47793 2.68649 6.80733 2.35857 7.24943C2.03064 7.69153 1.84804 8.22452 1.83597 8.77482C1.82389 9.32513 1.98295 9.86562 2.29117 10.3217C2.59939 10.7777 3.04158 11.1269 3.55669 11.3209L8.36002 13.1542C8.4694 13.196 8.56899 13.2599 8.65257 13.3419C8.73616 13.424 8.80196 13.5223 8.84586 13.6309L10.6792 18.4434C10.8658 18.9512 11.2045 19.3891 11.649 19.6975C12.0935 20.0059 12.6223 20.1697 13.1634 20.1667H13.2275C13.7785 20.1567 14.3124 19.9745 14.7546 19.6457C15.1968 19.317 15.5251 18.8581 15.6934 18.3334L20.0292 5.3442C20.1869 4.87572 20.2104 4.37248 20.097 3.89136C19.9836 3.41024 19.7378 2.97044 19.3875 2.6217ZM18.3334 4.7667L13.9517 17.765C13.9008 17.9295 13.7986 18.0735 13.6601 18.1757C13.5215 18.278 13.3539 18.3332 13.1817 18.3334C13.0105 18.3362 12.8425 18.2868 12.7001 18.1918C12.5576 18.0969 12.4474 17.9608 12.3842 17.8017L10.5509 12.9892C10.4179 12.6395 10.213 12.3217 9.94923 12.0564C9.6855 11.7911 9.36891 11.5842 9.02002 11.4492L4.20752 9.61586C4.04518 9.55637 3.90562 9.44738 3.80858 9.30428C3.71153 9.16118 3.6619 8.9912 3.66669 8.81836C3.66683 8.64616 3.72207 8.47853 3.82433 8.33998C3.9266 8.20143 4.07051 8.09924 4.23502 8.04836L17.2334 3.71253C17.3826 3.65171 17.5463 3.63541 17.7046 3.66562C17.8628 3.69583 18.009 3.77124 18.1254 3.88274C18.2417 3.99425 18.3233 4.13707 18.3602 4.29394C18.3971 4.45081 18.3878 4.61501 18.3334 4.7667Z" fill="white"/>
</svg>
