<svg width="9" height="9" viewBox="0 0 9 9" fill="none" xmlns="http://www.w3.org/2000/svg">
<path d="M7.01617 2.7037C6.98131 2.66855 6.93983 2.64065 6.89414 2.62161C6.84844 2.60258 6.79942 2.59277 6.74992 2.59277C6.70042 2.59277 6.6514 2.60258 6.6057 2.62161C6.56001 2.64065 6.51853 2.66855 6.48367 2.7037L3.68992 5.5012L2.51617 4.3237C2.47997 4.28873 2.43725 4.26124 2.39043 4.24279C2.34361 4.22434 2.29361 4.21529 2.24329 4.21616C2.19297 4.21703 2.14332 4.2278 2.09717 4.24786C2.05101 4.26792 2.00926 4.29688 1.9743 4.33307C1.93933 4.36927 1.91184 4.412 1.89339 4.45882C1.87493 4.50564 1.86589 4.55563 1.86676 4.60595C1.86763 4.65627 1.8784 4.70592 1.89846 4.75208C1.91852 4.79823 1.94747 4.83998 1.98367 4.87495L3.42367 6.31495C3.45853 6.3501 3.50001 6.37799 3.5457 6.39703C3.5914 6.41607 3.64042 6.42587 3.68992 6.42587C3.73942 6.42587 3.78844 6.41607 3.83414 6.39703C3.87983 6.37799 3.92131 6.3501 3.95617 6.31495L7.01617 3.25495C7.05423 3.21983 7.08461 3.17721 7.10539 3.12978C7.12617 3.08234 7.13689 3.03111 7.13689 2.97932C7.13689 2.92753 7.12617 2.87631 7.10539 2.82887C7.08461 2.78143 7.05423 2.73881 7.01617 2.7037Z" fill="#1A1A1A"/>
</svg>
